<?xml version="1.0" encoding="UTF-8"?>
<svg width="134px" height="134px" viewBox="0 0 134 134" version="1.1" xmlns="http://www.w3.org/2000/svg" xmlns:xlink="http://www.w3.org/1999/xlink">
    <!-- Generator: Sketch 51.2 (57519) - http://www.bohemiancoding.com/sketch -->
    <title>Group 4</title>
    <desc>Created with Sketch.</desc>
    <defs></defs>
    <g id="Circular-(Desktop-Version)" stroke="none" stroke-width="1" fill="none" fill-rule="evenodd">
        <g id="#3-copy-11" transform="translate(-894.000000, -165.000000)">
            <g id="Group-9" transform="translate(575.000000, 165.000000)">
                <g id="Group-4" transform="translate(319.000000, 0.000000)">
                    <g id="Group-3">
                        <rect id="Rectangle-9" fill="#D21E1E" fill-rule="nonzero" x="0" y="0" width="134" height="134" rx="28.8"></rect>
                        <g id="Group" transform="translate(23.903646, 11.690104)" fill="#FFFFFF">
                            <path d="M86.4836192,58.4888222 C86.4973948,58.765295 86.5598655,59.0443308 86.5364791,59.3169592 C86.4823378,59.9423068 86.4041693,60.5670137 86.304857,61.1869152 C86.2519972,61.5200922 86.1712658,61.8574339 86.0402375,62.1665837 C85.8454571,62.6259835 85.5882061,63.0584729 85.3693985,63.5085822 C85.2044118,63.8497683 84.9276186,64.0259677 84.5672108,64.0548003 C84.2542166,64.0801089 83.936417,64.0778664 83.6231025,64.0544799 C83.4994425,64.044869 83.3629681,63.9663802 83.2678205,63.8798824 C83.1105225,63.7370007 82.9894254,63.5559959 82.841418,63.4022219 C82.5646248,63.1148567 82.4268689,62.7432362 82.4082879,62.3783433 C82.3650389,61.5239365 82.3797756,60.6647243 82.4041232,59.808075 C82.4307132,58.8777423 82.5095224,57.948691 82.5393161,57.0183583 C82.5918556,55.36721 82.4640309,53.719906 82.4105304,52.0713205 C82.3749702,50.9772826 82.3410117,49.883565 82.3035293,48.7895271 C82.2990443,48.6652264 82.2807836,48.5399647 82.2596397,48.4169455 C82.123806,47.6153985 81.9799632,46.8154533 81.8502164,46.0132656 C81.7999195,45.7031547 81.7816588,45.387918 81.7441764,45.0755646 C81.681065,44.5424814 81.5904024,44.0113204 81.5577254,43.476315 C81.5375426,43.1565932 81.5221652,42.8535303 81.3437233,42.5741742 C81.2857377,42.483832 81.2713213,42.3617738 81.2498571,42.2518895 C81.1114605,41.5522178 80.9813933,40.8509443 80.8391523,40.1522337 C80.7689929,39.8094458 80.6738453,39.4714634 80.5982397,39.1293162 C80.5553112,38.9348562 80.4732984,38.7269409 80.5069364,38.5427325 C80.5607573,38.2473582 80.2477632,38.278113 80.1878554,38.0993508 C80.12122,37.8997649 80.0142189,37.7110714 79.9725718,37.5076412 C79.9152269,37.2257222 79.8585227,36.9623842 79.693536,36.7070553 C79.4157817,36.2764881 79.1857615,35.8129236 78.9576634,35.3522423 C78.7513499,34.9370525 78.6062257,34.4888654 78.3768461,34.0877715 C78.1013344,33.6069074 77.8200561,33.126684 77.4170401,32.7239884 C77.3119612,32.6192298 77.2097656,32.4641744 77.1091717,32.3302628 C77.0069761,32.1941088 76.9230411,32.0438588 76.8170011,31.9112287 C76.7234553,31.7946167 76.5546242,31.7097207 76.5187436,31.5825368 C76.4745336,31.424598 76.390919,31.3544387 76.2653369,31.2929291 C75.9789328,31.153251 75.7710176,30.8364125 75.3894658,30.9065719 C75.3651183,30.9113773 75.3189861,30.8716524 75.303929,30.8418587 C75.197889,30.6307398 74.991896,30.6051108 74.7961545,30.5628229 C74.2569844,30.4465313 73.7187754,30.3238325 73.176722,30.2229183 C72.891279,30.1700585 72.5894976,30.1479535 72.323917,30.2866704 C71.811337,30.5554546 71.1699713,30.5721134 70.7762458,31.0779658 C70.7253082,31.1439605 70.6298401,31.1737542 70.5600011,31.2262937 C70.4395448,31.3172766 70.313322,31.4034541 70.2060005,31.5078923 C69.5492574,32.1444526 68.8918736,32.7800518 68.2460228,33.4278248 C67.8833724,33.7917566 67.5409049,34.1761916 67.1936319,34.5561415 C66.7185344,35.0757695 66.2456793,35.5966789 65.7792315,36.1236752 C65.6808802,36.234841 65.571957,36.3668304 65.5437651,36.5049066 C65.4716835,36.849937 65.4358029,37.1924045 65.4412491,37.5307073 L62.4298415,37.8933577 L62.3962035,39.9866063 C61.8035329,39.2526558 61.1003372,38.724378 60.2866164,38.4011322 C59.4728957,38.0778865 58.6143242,37.9708854 57.7102612,38.0798087 C56.3634572,38.2419121 55.1175674,38.7625011 53.9713104,39.6415758 C52.8253737,40.5206506 51.9652004,41.6560153 51.3901497,43.0483107 C50.815099,44.4402858 50.6142318,45.8578898 50.7881886,47.3008025 C51.0159663,49.191582 51.7873992,50.7809004 53.103128,52.0677966 C54.4185365,53.3553335 56.0456576,53.8823298 57.9838507,53.6487855 C58.8273652,53.5472306 59.5702859,53.3124049 60.2138941,52.9443084 C60.8565413,52.5765322 61.5244971,51.9825801 62.2177616,51.1634132 L62.1921326,52.7600999 L65.7455934,52.332416 L65.9881078,39.3551718 C66.1197768,39.5070236 66.282521,39.6290817 66.4638462,39.7315977 C66.7470466,39.891779 67.0353729,40.0461937 67.3044774,40.2288003 C67.4572903,40.3325978 67.5799891,40.4834885 67.7094156,40.6196426 C67.9250195,40.8464592 68.1210814,41.0940994 68.3517424,41.3039369 C68.6192451,41.5464513 68.8492653,41.8229241 68.9767696,42.1468106 C69.1885292,42.6856603 69.5681588,43.1088592 69.8702606,43.5842772 C70.072089,43.9017564 70.3065944,44.1984121 70.4062271,44.5716344 C70.4318561,44.6674228 70.460048,44.7696184 70.5154707,44.8490683 C70.800273,45.2549676 70.9976163,45.7002715 71.1613215,46.1657582 C71.5316606,47.2200712 71.9455689,48.2602882 72.2742609,49.326775 C72.4142593,49.7797676 72.5840514,50.2282751 72.6426777,50.717789 C72.7291756,51.4376435 72.7560861,52.1760791 73.0277535,52.8658195 C73.0338403,52.8811969 73.019424,52.904263 73.0126964,52.9337364 C72.9688068,52.8882449 72.9303633,52.8478792 72.86565,52.7799624 C72.8441857,52.8879246 72.8169549,52.9680152 72.814392,53.0487465 C72.8002961,53.4642567 72.7967721,53.8804076 72.7810743,54.2959178 C72.7769096,54.4061225 72.7743467,54.532986 72.7202055,54.6217264 C72.4165018,55.1234141 72.2499133,55.6939797 71.9144938,56.1812511 C71.6364191,56.5842671 71.3874974,57.007466 71.1289649,57.4242576 C70.6189478,58.2472688 69.9855911,58.9533478 69.1789184,59.4979641 C69.1305436,59.530641 69.0844114,59.5847823 69.064549,59.6389236 C68.9902249,59.8391501 68.889631,60.0393767 68.8678464,60.2466512 C68.8294029,60.6153885 68.6708234,60.914607 68.4565009,61.2013315 C68.0679012,61.7212798 67.8023207,62.3017767 67.640858,62.9296872 C67.4995781,63.4819921 67.3137679,64.0243658 66.9853963,64.4869693 C66.648375,64.9617465 66.3219256,65.4326794 66.0582672,65.9567924 C65.6799191,66.7080425 65.2407021,67.4291785 64.8159015,68.1564014 C64.5999771,68.525459 64.3353577,68.8669654 64.1341701,69.243071 C63.9057516,69.6697938 63.6481801,70.0686452 63.2941796,70.3973371 C62.8277318,70.8307875 62.6473677,71.3683558 62.6691523,71.9914609 C62.6781225,72.25576 62.6643469,72.5206997 62.6726763,72.7853192 C62.6858112,73.2219733 62.5483757,73.6032046 62.2696603,73.9347798 C62.0915387,74.1471802 61.8938751,74.3445235 61.7317717,74.5681365 C61.4834907,74.9102836 61.1922812,75.2447421 61.0455552,75.6304585 C60.9484853,75.8867485 60.6870695,76.1391942 60.8353974,76.4797395 C60.8658318,76.5489378 60.7889448,76.6677923 60.754666,76.7616585 C60.5031815,77.4504379 60.3093621,78.1443431 60.5291308,78.8834194 C60.5464304,78.9407643 60.549634,79.0154087 60.5278494,79.06955 C60.3292246,79.5718784 60.5634096,80.0588294 60.5445082,80.5313641 C60.5944848,80.5675651 60.6127454,80.5874275 60.6351708,80.5960773 C61.5946565,80.9596888 62.4743719,81.4626579 63.298985,82.0723077 C63.4972894,82.2187134 63.734678,82.3410919 63.9727074,82.3993978 C64.7928354,82.6005855 65.5882954,82.8536719 66.3180812,83.2880834 C66.3501175,83.3069848 66.3898424,83.331012 66.4225194,83.3265269 C66.6800909,83.2922481 66.8771138,83.4453814 67.0981639,83.5293164 C67.2346383,83.5812151 67.3887327,83.5917871 67.5370605,83.6046016 C67.8868964,83.6347156 68.2399359,83.6382396 68.5872088,83.6843718 C68.9940692,83.7381927 68.9950303,83.7590163 69.0520548,84.1639545 C69.1254178,84.6851843 69.116768,85.2115399 69.2285746,85.7340511 C69.3461476,86.281871 69.3535159,86.8533977 69.4015703,87.4153135 C69.4512265,87.9855588 69.6639472,88.511594 69.8273321,89.0510845 C69.899734,89.2913563 70.0259568,89.5239395 70.0519062,89.7677354 C70.1345597,90.5382072 70.3748316,91.2587025 70.6695651,91.9670239 C70.8098839,92.3037249 70.9521248,92.6407463 71.07162,92.9854563 C71.1747767,93.282112 71.2702448,93.5848546 71.3266286,93.8927229 C71.5345438,95.0152732 71.5060316,96.148075 71.4403573,97.2808768 C71.4358722,97.3542398 71.4211355,97.4346508 71.3874974,97.4980825 C71.1658066,97.9065447 70.9357863,98.3095608 70.712814,98.7177026 C70.5346925,99.0447927 70.2822468,99.303966 69.9948817,99.5362288 C69.7504451,99.7338924 69.5111343,99.9382837 69.2756678,100.14684 C68.9456945,100.43837 68.6195654,100.726696 68.2171901,100.929165 C67.5123926,101.284447 66.7563371,101.399137 65.9890689,101.442065 C65.1968125,101.486275 64.4019931,101.469616 63.6084552,101.493003 C63.4533997,101.497488 63.2880927,101.538494 63.1477739,101.60513 C62.947227,101.699957 62.7745516,101.67593 62.6265441,101.535291 C62.5189023,101.433095 62.4215121,101.309435 62.3555174,101.177446 C62.1152456,100.693058 61.8877882,100.201942 61.658729,99.7117874 C61.4428047,99.2507858 61.5898511,98.6263993 62.0095259,98.3403156 C62.4045329,98.0718518 62.8258096,97.8434333 63.2275442,97.5845804 C63.4681364,97.4292046 63.6959141,97.253646 63.924653,97.0800095 C64.3340763,96.7692578 64.7313258,96.4405659 65.1526024,96.1464731 C65.290038,96.0503644 65.3643621,95.9382375 65.4133775,95.797278 C65.561385,95.3724773 65.7023445,94.9451138 65.861885,94.471618 C65.872457,94.5058968 65.8695737,94.4793067 65.8573999,94.4581628 C65.4944292,93.8315337 65.154845,93.193692 64.8517821,92.5350267 C64.7575955,92.3306354 64.6124713,92.1646876 64.397508,92.0509589 C64.2302788,91.9625389 64.097008,91.8090852 63.9884051,91.7177819 C63.8484067,91.7123358 63.734678,91.7280335 63.6334435,91.6992009 C63.4892803,91.6585149 63.3550484,91.5819482 63.2160111,91.5246033 C62.8219652,91.3615388 62.4352877,91.1766897 62.0309902,91.0472632 C61.7881555,90.9694151 61.5171288,90.9803074 61.2861474,90.9540377 C61.1685744,91.074494 61.0695824,91.1834173 60.963222,91.2843315 C60.7569086,91.4791119 60.6162694,91.7283539 60.6979619,91.9939344 C60.8184182,92.3847767 60.6534315,92.7025763 60.5560413,93.0511307 C60.4480791,93.4362064 60.3638238,93.830893 60.3106436,94.2275018 C60.2449693,94.7131713 60.2228643,95.204287 60.1808968,95.6928398 C60.1658397,95.8680781 60.1962742,96.0670232 60.1229112,96.2137493 C59.9752241,96.5065606 60.0146286,96.8000126 60.0229581,97.0995516 C60.0252006,97.1838069 60.0319282,97.3097094 59.9838738,97.3462307 C59.7669884,97.5092952 59.8201686,97.7476449 59.7775604,97.9600453 C59.7387965,98.1545053 59.6971494,98.3489653 59.649095,98.5424643 C59.5882262,98.7865805 59.5260758,99.0217266 59.630514,99.2776962 C59.7461649,99.5599356 59.7628237,99.8469804 59.6497358,100.151645 C59.5558695,100.406974 59.5523456,100.69498 59.4703328,100.956396 C59.3729426,101.267788 59.2409532,101.565084 58.8847101,101.685861 C58.7367026,101.735838 58.5627458,101.798308 58.473685,101.912678 C58.3080576,102.125719 58.0783577,102.146542 57.8582686,102.23304 C57.3697158,102.425258 56.8689892,102.614272 56.426889,102.890424 C55.8906022,103.225523 55.4231933,103.668905 54.900682,104.029313 C54.1897976,104.519147 53.4568082,104.977586 52.7289446,105.442111 C52.6261083,105.507786 52.4982836,105.568655 52.381031,105.570256 C51.8697324,105.576664 51.3584339,105.559044 50.8471353,105.555199 C50.7875479,105.554879 50.7279604,105.585634 50.6690137,105.60005 C50.3762024,105.67021 50.0862744,105.759911 49.789939,105.804441 C49.3513628,105.870436 48.9127865,105.883571 48.5213035,105.605817 C48.4533867,105.557762 48.343182,105.497534 48.2829538,105.520921 C47.9943072,105.633688 47.6880407,105.354332 47.402918,105.492729 C47.1789847,105.444995 46.9678658,105.357215 46.772765,105.207286 C46.5116696,105.006739 46.278766,104.784407 45.9766642,104.643127 C45.7575362,104.540611 45.5060517,104.472695 45.3077473,104.329813 C45.0902211,104.173156 45.040565,103.928719 45.033517,103.677555 C45.2161236,103.369686 45.4967612,103.137103 45.7655453,102.92214 C46.2021994,102.571984 46.7013242,102.299676 47.1796254,102.00302 C47.2722101,101.945675 47.3407677,101.882884 47.3702411,101.806317 C47.5349074,101.706685 47.688361,101.591995 47.8171468,101.444308 C47.8408536,101.417397 47.8485423,101.387604 47.8462997,101.359412 C47.9158184,101.328016 47.9850167,101.297261 48.0538946,101.266186 C47.6947683,101.193144 47.3548637,101.198269 47.0200849,101.274195 C46.9697879,101.276438 46.9198114,101.279001 46.8691941,101.281884 C46.7058092,101.25177 46.5324931,101.245363 46.3643028,101.266827 C46.0327276,101.199231 45.6937841,101.243441 45.3590053,101.223578 C45.3343374,101.221976 45.3103102,101.219413 45.2859626,101.217812 C45.1389162,101.160467 45.0104509,101.073648 44.9265159,100.939417 C44.7333373,100.629306 44.6775942,100.019015 45.1206556,99.8838221 C45.3417057,99.8168663 45.561154,99.7976446 45.751129,99.6832752 C46.1192255,99.5772352 46.4732261,99.4410811 46.7919868,99.2107405 C46.8675923,99.1562788 46.9826024,99.1556381 47.0799926,99.1319313 C47.2260779,99.0957303 47.387861,99.0880416 47.516006,99.018523 C47.8382907,98.8445661 48.1721084,98.8778838 48.5110519,98.9105608 C48.6987844,98.9288215 48.8871575,98.9627799 49.0742492,98.9576541 C49.6143804,98.9419563 50.1541912,98.9176088 50.6933613,98.879806 C50.9112078,98.864749 51.0838832,98.7782511 51.1876806,98.5418236 C51.3337659,98.2089669 51.5416812,97.9036615 51.8386572,97.6765245 C52.018701,97.5394093 52.0315155,97.3535991 51.9802575,97.1655463 C51.8457052,96.6712269 51.7992527,96.166656 51.7707404,95.6585611 C51.7425485,95.1466218 51.7185213,94.6350029 51.6884072,94.1237043 C51.6429158,93.3497085 51.6076759,92.575072 51.5407201,91.8033187 C51.4833752,91.1404887 51.6304216,90.477979 51.5272649,89.8170712 C51.5058006,89.6809171 51.4612702,89.5441224 51.466396,89.4089294 C51.4856178,88.8755258 51.4016828,88.3562182 51.2216391,87.859336 C51.0697872,87.4387 50.8682792,87.0360043 50.7186699,86.6938572 C50.2624737,86.6028742 49.8892514,86.531113 49.5176309,86.4510224 C49.474382,86.4420522 49.4445883,86.3827852 49.4032615,86.355234 C49.1248665,86.1675016 48.8499955,85.9736823 48.5639118,85.798444 C48.178836,85.5626572 47.7751793,85.355703 47.3961904,85.1112664 C46.805442,84.7293943 46.2009179,84.3654625 45.714928,83.8410291 C45.6034419,83.7205728 45.440057,83.6475301 45.2942921,83.5488585 C45.296855,83.5084928 45.3006993,83.4508276 45.3058251,83.3652908 C45.1799226,83.3797071 45.0873379,83.3902791 44.9819386,83.4027732 C44.7935655,83.0772849 44.9736092,82.7107902 44.8268832,82.3503824 C44.7913229,82.44553 44.7455111,82.5124858 44.7451907,82.5794416 C44.74455,82.8668067 44.74455,83.155133 44.7676161,83.4412167 C44.8105447,83.9653297 44.8960815,84.487841 44.7029029,85.0033043 C44.6692648,85.0930058 44.6801571,85.2006476 44.6766332,85.2996396 C44.6670223,85.5741902 44.6868848,85.8522649 44.6484413,86.1223305 C44.5971833,86.479855 43.8190227,88.321619 43.7322045,89.1228457 C43.620398,89.0219315 43.2196245,90.5551864 43.0069038,90.7442003 C42.7201794,90.9992088 42.8560131,92.4924185 42.5744144,92.8617964 C42.4754224,92.9918636 42.3895653,93.1337842 42.2774384,93.2513572 C41.9644442,93.5794084 41.6517704,93.9039356 41.5124127,94.3527635 C41.4941521,94.4110695 41.4480199,94.4607257 41.4114985,94.512304 C41.1532864,94.8820024 40.9239068,95.2786111 40.6272511,95.6149918 C40.2168668,96.0807988 40.0996141,96.6670622 39.8926599,97.2142414 C39.7677185,97.5438944 39.6680858,97.8751492 39.4630538,98.1698827 C39.1567873,98.6094201 39.0677265,99.1050208 39.2359168,99.6111936 C39.4214067,100.169585 39.388089,100.694019 39.1337212,101.217812 C38.9991689,101.495245 38.9754621,101.793183 38.9796268,102.101371 C38.9882766,102.755231 38.9857137,103.409411 38.9616865,104.062631 C38.9507942,104.361208 38.8822366,104.642166 38.605123,104.851683 C38.2994972,105.083626 38.0211022,105.356895 37.7590457,105.637533 C37.5466453,105.86531 37.272415,105.935149 37.0077956,105.916568 C36.7857844,105.901191 36.5913243,105.941877 36.3933403,106.000503 C36.1168675,106.082196 35.8528888,106.213544 35.5725716,106.27153 C35.1541782,106.358028 34.7377069,106.325351 34.3394963,106.135376 C33.9778071,105.963341 33.6026626,106.003066 33.2605154,106.176703 C33.1704936,106.222835 33.1028971,106.258395 33.0035847,106.258075 C32.8309093,106.257114 32.6518267,106.241736 32.4871603,106.281782 C32.0364103,106.391346 31.5987951,106.335923 31.2105158,106.118076 C30.7764246,105.875882 30.3179858,105.80316 29.8419272,105.771124 C29.6477875,105.758309 29.4683845,105.733641 29.346006,105.552957 C29.3069218,105.495292 29.2358013,105.450441 29.170127,105.420968 C28.9705412,105.329664 28.8744324,105.162435 28.7969047,104.969577 C28.7177751,104.771272 28.6629932,104.537087 28.5207522,104.397089 C28.2718305,104.151371 28.2080784,103.839018 28.0898646,103.541721 C28.0309179,103.393393 27.9591567,103.249871 27.8931621,103.105067 C27.8181972,103.110513 27.7685411,103.119804 27.719846,103.1166 C27.3360517,103.092253 26.9679552,103.278063 26.5614151,103.109232 C26.2160644,102.965709 25.9866848,102.788869 25.9668223,102.407638 C25.9552893,102.175695 25.9415137,101.944394 25.9290196,101.717577 C25.9274178,101.713733 25.9254956,101.71117 25.923253,101.707966 C25.9248549,101.700918 25.9264567,101.694511 25.9280585,101.687783 C25.9754721,101.554513 26.0392243,101.429892 26.1212371,101.318085 C26.5928107,101.056669 27.061501,100.638596 27.1105165,100.683127 C27.2870362,100.620976 27.522823,100.573883 27.4763704,100.335854 C27.430879,100.101669 27.4533043,99.8770945 27.4385677,99.6499575 C27.4113369,99.231564 27.5045623,98.8602639 27.6781988,98.5110688 C27.6954984,98.5043412 27.7121573,98.4972932 27.7297772,98.4915267 C28.0754483,98.3790794 28.4473892,98.382283 28.8097192,98.3861274 C28.8664233,98.429056 28.9311366,98.4703827 28.994248,98.4755085 C29.2755263,98.4972932 29.5135556,98.5620064 29.5423882,98.9185699 C29.9281047,98.8490512 30.2330898,98.6542708 30.4810504,98.4261727 C30.8296048,98.1064509 31.1140867,97.715929 31.4232365,97.3535991 C31.4543116,97.3167574 31.4815424,97.2677419 31.4889108,97.220969 C31.5549055,96.7785484 31.6385201,96.3386906 31.5917471,95.8863388 C31.527995,95.2677188 31.6917002,94.6689613 31.773713,94.0641169 C31.8429113,93.5573034 31.9511939,93.0565768 32.0373714,92.5523262 C32.0665244,92.3806119 32.0774167,92.2060144 32.1040068,92.0339797 C32.1520612,91.7248299 32.2247834,91.418243 32.252655,91.1078117 C32.2952632,90.6330345 32.3135239,90.155374 32.3340271,89.6786746 C32.362219,89.0292998 32.4041864,88.3796047 32.4009828,87.7302299 C32.3961774,86.6752761 32.3478026,85.6203224 32.3397936,84.5653687 C32.3353085,84.030043 32.4048272,83.4940765 32.3939348,82.9587508 C32.3766353,82.1065865 32.3183293,81.2547426 32.2834098,80.4028987 C32.27476,80.1921002 32.3266587,79.9739333 32.2885356,79.7711439 C32.2090857,79.3424989 32.2273463,78.9225036 32.2821283,78.4944993 C32.3148053,78.235326 32.3369103,77.9582125 32.2811672,77.7073686 C32.1658367,77.1887018 32.1427706,76.670996 32.150139,76.1436793 C32.1559055,75.7694959 32.0684465,75.3921088 32.0905516,75.020168 C32.1216267,74.489007 32.014946,73.9748251 31.9838708,73.4526343 C31.9329332,72.6081587 31.832019,71.7646442 31.9899577,70.9156836 C32.0482637,70.6026894 31.9992482,70.2698328 31.9992482,69.9853509 C31.8666182,69.9100657 31.7596171,69.8405471 31.6449273,69.7860854 C31.4668058,69.7011894 31.2845195,69.5615113 31.1022332,69.5592688 C30.4538195,69.5509394 29.9165716,69.2683796 29.3790033,68.9598705 C29.0855513,68.7920006 28.7943418,68.6068311 28.4787847,68.4931024 C27.4138998,68.1096285 26.4733155,67.5131135 25.5455457,66.8810383 C25.0800589,66.5641998 24.5748473,66.3040654 24.0834112,66.0259907 C23.6964133,65.8071832 23.3401702,65.5633873 23.1085481,65.1632545 C23.0111579,64.9947439 22.8855758,64.809254 22.7241131,64.7221154 C22.6023754,64.6564411 22.5290123,64.5850002 22.4655806,64.4802417 C22.2989921,64.2044096 22.1340054,63.9282571 21.9677372,63.6521046 C21.877395,63.5018546 21.7908971,63.3496824 21.6954291,63.202636 C21.6079701,63.0684041 21.5201908,62.9328908 21.4167137,62.811153 C21.2802393,62.6512922 21.1017974,62.5218657 20.9887094,62.3485496 C20.6068373,61.7610048 20.1564077,61.2484248 19.5573298,60.8710377 C19.259713,60.6836257 18.9797162,60.467381 18.6913899,60.2649119 C18.340593,60.0185531 17.8972113,60.0477061 17.6092054,60.3747962 C17.4570332,60.5474716 17.2962112,60.6525505 17.0738797,60.6826646 C16.4280289,60.7707643 15.9689494,61.2003704 15.4906482,61.5796796 C15.1798966,61.825718 15.1401716,62.1906109 15.3484072,62.6525736 C15.4550879,62.8893215 15.4634174,63.10012 15.3765991,63.3400715 C15.327904,63.4746238 15.3041972,63.6357661 15.3272633,63.7754442 C15.3929376,64.1717326 15.481678,64.564497 15.5729813,64.9563004 C15.6835064,65.4317183 15.8446487,65.8991272 15.9100027,66.3803117 C15.9647847,66.7852499 16.0858817,67.1552686 16.2271616,67.5323352 C16.3975944,67.9882111 16.5350299,68.4578625 16.6628546,68.9281547 C16.7653706,69.3023381 16.788757,69.7031115 16.9271536,70.0609565 C17.0633077,70.4127145 17.1578146,70.7612689 17.1030326,71.1248803 C17.0024388,71.7934769 17.1209729,72.4534236 17.1353893,73.1168944 C17.1488445,73.7444845 17.1619794,74.3720746 17.1866473,74.9993444 C17.2090726,75.5631824 17.2036265,76.1340684 17.2901244,76.6892566 C17.3971254,77.3767545 17.4653626,78.0578452 17.4157065,78.7527115 C17.3849517,79.1775122 17.4044938,79.6003907 17.4836233,80.0245506 C17.5829357,80.5547506 17.6454064,81.0923188 17.7075567,81.6286057 C17.7299821,81.8240268 17.7392726,82.0252144 17.5784506,82.1956473 C17.5195039,82.258118 17.4919527,82.3824186 17.5022043,82.4727609 C17.5672379,83.0442876 17.6559783,83.6135717 17.718449,84.1854188 C17.7584943,84.5464673 17.8216057,84.9184082 17.7761143,85.2730495 C17.7123621,85.7696114 17.7809197,86.2517569 17.817441,86.7383876 C17.8321777,86.933168 17.9151516,87.1228226 17.9664096,87.3153604 C18.0432966,87.6049681 18.1329981,87.8916926 18.1919448,88.1851446 C18.2435232,88.4423957 18.2563377,88.7073355 18.2938201,88.9677902 C18.3832012,89.5889731 18.472262,90.2104764 18.5699725,90.8300574 C18.6792162,91.5236422 18.7977503,92.2153049 18.911479,92.9079286 C18.9281378,93.0069206 18.9858031,93.1312213 18.9470392,93.2007399 C18.8307476,93.4096163 18.915964,93.5957469 18.9829198,93.7738685 C19.1325291,94.1723994 19.2949529,94.5680471 19.4775595,94.9528025 C19.8318804,95.6998878 20.1016257,96.4844556 20.5530164,97.1895734 C20.896445,97.726501 21.2107206,98.286815 21.3500783,98.9285011 C21.4397798,99.3420891 21.5682452,99.7502309 21.7140101,100.148121 C21.9549227,100.803903 22.2166589,101.451676 22.3348727,102.145261 C22.4300203,102.706856 22.591483,103.2582 22.5607282,103.839338 C22.5482341,104.074484 22.5956477,104.312834 22.6180731,104.548941 C22.639217,104.772554 22.7125801,105.004496 22.6741366,105.217217 C22.6215971,105.512591 22.6283247,105.786822 22.7391701,106.058809 C22.6715737,106.109427 22.617112,106.150433 22.6010939,106.162286 C22.6235193,106.52782 22.5911627,106.864841 22.6738162,107.170788 C22.8461712,107.810231 23.0736286,108.434618 23.2889122,109.061567 C23.4209015,109.446963 23.7300514,109.693322 24.0196591,109.955699 C24.1977806,110.117482 24.4467023,110.268373 24.2471164,110.579765 C24.2278947,110.609879 24.2669789,110.674913 24.271464,110.724248 C24.2983744,110.997838 24.1058366,111.262457 23.8360913,111.337743 C23.1604468,111.526436 22.4681435,111.520349 21.7764808,111.513942 C21.5320442,111.51202 21.0293955,111.041087 20.8775436,110.626538 C20.7958512,110.402925 20.6901316,110.188282 20.6068373,109.96531 C20.5639088,109.851261 20.5251449,109.728562 20.5206598,109.608105 C20.5043213,109.148706 20.3620804,108.745049 20.0468437,108.405144 C19.995906,108.350683 19.9321539,108.290454 19.9174172,108.223178 C19.8764108,108.035446 19.7457029,107.945424 19.5842402,107.900894 C19.4179721,107.854761 19.2427338,107.804785 19.0742231,107.813114 C18.7330371,107.830414 18.3636591,107.76538 18.069246,107.999245 C17.8533216,108.170959 17.6543765,108.367021 17.4682459,108.571092 C17.0658706,109.012231 16.7346158,109.517443 16.2281227,109.862473 C15.9740752,110.03611 15.7690432,110.292079 15.4095965,110.223522 C15.374677,110.217115 15.3317484,110.277022 15.287218,110.29304 C14.7727158,110.476608 14.2662227,110.696697 13.7382653,110.830288 C13.0991421,110.992392 12.4257401,111.029234 11.7965482,111.217286 C11.319208,111.360488 10.8489159,111.433531 10.3606834,111.44186 C9.82920205,111.450831 9.330718,111.374584 9.02284964,110.861684 C9.01195731,110.843744 8.97992106,110.839259 8.94660336,110.82324 C8.14697856,111.150331 7.45787882,110.797291 6.77102161,110.488462 C6.74603334,110.151761 6.738665,109.86824 6.90140915,109.618357 C6.98918848,109.483164 7.11637239,109.372959 7.20062773,109.236485 C7.48414854,108.776765 7.75517522,108.310317 8.03228878,107.847073 C8.17933517,107.600714 8.35521418,107.36749 8.47054468,107.107356 C8.60830056,106.796925 8.70889438,106.474319 9.03726595,106.300042 C9.08756286,106.273132 9.12664709,106.216107 9.15964442,106.16581 C9.3794131,105.82975 9.67318551,105.603574 10.0697943,105.508747 C10.2892426,105.456528 10.5045262,105.383165 10.7166062,105.305957 C10.7816398,105.282251 10.875506,105.217537 10.8787096,105.16692 C10.897611,104.862896 11.1712006,104.838869 11.3512443,104.715209 C11.4223648,104.665873 11.5425007,104.654981 11.5770999,104.591869 C11.6812177,104.400933 11.8724741,104.383634 12.0371404,104.301621 C12.4369528,104.102035 12.8844992,103.93801 12.9488921,103.392753 C12.7432194,103.138385 12.7348899,103.137103 12.794157,102.794956 C12.8261933,102.611709 12.8841789,102.431345 12.9440867,102.254505 C13.0959385,101.811123 12.9950243,101.360052 12.9940632,100.912186 C12.9940632,100.884955 12.9520957,100.858044 12.9232631,100.821523 C12.8633553,100.876305 12.8095344,100.925641 12.7329678,100.996121 C12.7329678,100.729579 12.7438601,100.504685 12.7297641,100.281392 C12.7179107,100.095582 12.6990093,99.9043253 12.6416645,99.7287666 C12.5593313,99.4795246 12.4343899,99.2446989 12.336359,99.0002623 C12.1880312,98.6276807 11.9993376,98.2621471 11.9179656,97.8741881 C11.8506894,97.5544663 11.7824522,97.2421129 11.6674421,96.935526 C11.5043776,96.5017552 11.3352262,96.0772748 11.1112928,95.6649683 C10.8316163,95.1504661 10.6326712,94.5923946 10.4353279,94.0330417 C9.76737209,92.1364957 9.0462361,90.2575696 8.33663316,88.3757603 C8.22674882,88.0851915 8.05407343,87.8183296 7.93842257,87.5296829 C7.82309207,87.2423178 7.74684579,86.9392549 7.64529088,86.6458028 C7.59691614,86.505484 7.53028074,86.3709318 7.47133404,86.234137 C7.42968692,86.1367468 7.38067145,86.0419195 7.34831484,85.941646 C7.31756004,85.8474594 7.31595823,85.7427009 7.28071835,85.6504365 C7.06543475,85.0862781 6.84534571,84.5237216 6.62301414,83.9621261 C6.60090912,83.9060627 6.55253439,83.8602508 6.50127639,83.78881 C6.42470975,84.0255579 6.29336112,83.6802071 6.28599279,83.3069848 C6.28375025,83.1849267 6.26997466,83.0564613 6.22928862,82.9427326 C5.99638508,82.2939986 5.81730245,81.6215577 5.36719313,81.0698935 C5.24161103,80.9157991 5.15767605,80.7267852 5.06060622,80.5502655 C4.96802145,80.3807937 4.89946388,80.2010704 4.99525227,80.010775 C5.12435835,79.7541647 5.09200174,79.4972339 5.01255184,79.2399829 C4.90747294,78.9032819 4.8052773,78.5656198 4.68289883,78.235326 C4.63548518,78.107181 4.53521171,77.9992189 4.46569305,77.8915771 C4.48972024,77.7057668 4.57013123,77.4994534 4.52880446,77.3216522 C4.45319891,76.9948824 4.39168931,76.6732385 4.39809656,76.3371782 C4.40226128,76.111643 4.40130019,75.884506 4.38207844,75.6599319 C4.35196436,75.2969612 4.30839506,74.9352719 4.2645054,74.573903 C4.15878577,73.7021966 4.04858107,72.8314514 3.94254109,71.9600654 C3.9210768,71.7870696 3.88968127,71.6118313 3.89736997,71.4388356 C3.9313284,70.6497827 3.96080175,69.8594484 4.0235928,69.0723178 C4.07549152,68.4232633 4.18313332,67.7793347 4.24111894,67.1302803 C4.26258323,66.8858437 4.25521489,66.6221854 4.18601659,66.3899226 C4.07901551,66.0320776 3.90537904,65.6944156 3.76281772,65.3468222 C3.4443774,64.5721857 3.10735604,63.8039564 2.81550581,63.0190683 C2.45734053,62.0544568 2.14979253,61.0706236 1.9723117,60.0547541 C1.9697488,60.0403378 1.96654518,60.0262418 1.96430264,60.0121459 L3.79901869,59.7910957 L3.9569574,50.6617255 L10.7460795,49.8444808 L10.6003146,58.9722492 L14.3117142,58.5253435 L14.6596279,38.4216354 L10.9213178,38.8720651 L10.8002208,46.4556863 L4.0159041,47.2726106 L4.14725272,39.687708 L0.711685258,40.101296 C0.770631958,39.2683535 0.843994971,38.4363721 0.917998709,37.6043907 C0.943948072,37.3173459 0.991361722,37.0319029 1.03300885,36.7461396 C1.13744702,36.0266054 1.21273221,35.300664 1.36073969,34.5897796 C1.45941134,34.1150023 1.67053023,33.6642523 1.8159748,33.1981249 C1.88645455,32.9719489 1.9210537,32.7345603 1.97583569,32.5029382 C2.0210068,32.3104004 2.0440729,32.1072905 2.12448389,31.9298097 C2.38942368,31.3457889 2.37244447,30.7848341 2.04791725,30.2309274 C1.98480584,30.1232856 1.93162566,30.0082754 1.88613419,29.8919838 C1.6391347,29.2650344 1.1573095,28.8190898 0.705598371,28.3497588 C0.679969371,28.323489 0.645049858,28.3010637 0.610130345,28.2895306 C0.325968806,28.1950237 0.247159631,27.9480242 0.206793956,27.6997432 C0.123820068,27.1919687 0.0661548176,26.6803498 0.00208231725,26.1696919 C-0.00560638279,26.1088231 0.00977101729,26.0447506 0.0193818923,25.9829206 C0.0847358426,25.5613235 0.154254505,25.1403672 0.216084468,24.7184498 C0.230500781,24.6197781 0.233384043,24.5159807 0.219928818,24.417309 C0.150089793,23.9018458 0.231141506,23.4197002 0.494799845,22.9647855 C0.581938445,22.8148558 0.628391008,22.6399379 0.686696983,22.4743105 C0.810356909,22.1190285 0.917037622,21.7570188 1.05543422,21.4078237 C1.1752498,21.1037997 1.29730791,20.7712634 1.57089749,20.5854532 C2.1004567,20.2244046 2.43523552,19.7252799 2.71363053,19.1710527 C2.73637627,19.1265223 2.77481977,19.0906417 2.80140986,19.0480335 C3.07756233,18.6056129 3.13811084,18.1330782 2.99554953,17.6336331 C2.79980804,16.9458148 2.3644354,16.3537849 2.20008944,15.6525114 C2.19176002,15.6172715 2.169655,15.5817113 2.14498709,15.5544804 C1.83968163,15.2139351 1.94091618,14.8266168 2.03702493,14.4524334 C2.05848921,14.3697799 2.11102866,14.2996205 2.06041139,14.220491 C1.95885648,14.0612708 2.00018324,13.9033321 2.05848921,13.7495581 C2.18311023,13.4211865 2.36667794,13.1065906 2.43427443,12.7679674 C2.5258981,12.3114508 2.65948927,11.8751171 2.82671849,11.4439092 C2.96767799,11.0815792 3.08557139,10.709318 3.24286938,10.3543563 C3.45110501,9.88502525 3.67952347,9.42402361 3.91434919,8.96750705 C4.10848886,8.59076075 4.26514613,8.1947927 4.60120639,7.89941847 C5.02440525,7.52651652 5.41140316,7.11260817 5.82467078,6.72849353 C6.25651943,6.32739967 6.69573642,5.93367416 7.14296248,5.55052061 C7.33261708,5.38809682 7.56680207,5.27693103 7.75485485,5.11322579 C8.24725202,4.68490113 8.72651432,4.2408787 9.20930061,3.80166171 C9.38485926,3.64212119 9.5767564,3.53800337 9.82439661,3.58862065 C9.97688917,3.62001617 10.1191301,3.61585146 10.2453529,3.45054441 C10.1466813,3.39800496 10.0678721,3.35539675 9.9688801,3.30253693 C10.0496115,3.26281198 10.1140043,3.22532957 10.1825619,3.19841912 C10.3228807,3.14363713 10.5356014,3.13498735 10.5932666,3.03503425 C10.750885,2.76176503 10.9280454,2.80981941 11.1628711,2.88638604 C11.3089564,2.93412006 11.4829133,2.92771281 11.6043307,2.78258859 C11.4758653,2.66437483 11.2641057,2.83737058 11.1385236,2.59805979 C11.2878125,2.54423889 11.4214037,2.49234017 11.556917,2.44877087 C11.6270764,2.42634549 11.7103707,2.43531564 11.7728413,2.40263867 C12.2943915,2.13129163 12.8015253,1.83175269 13.3352493,1.58891791 C13.5498921,1.49120735 13.7975324,1.46365618 13.9932738,1.30828036 C14.0288341,1.28008846 14.090664,1.27336085 14.1390388,1.27560339 C14.514824,1.29322332 14.8592137,1.20384219 15.1731689,0.994004748 C15.2112921,0.968375748 15.2708795,0.96228886 15.3186135,0.966133211 C15.6114248,0.987597498 15.85458,0.85849141 16.0974148,0.722337347 C16.1608465,0.686456747 16.2313263,0.658264847 16.3024468,0.640644909 C16.5696291,0.575611321 16.8377725,0.513781358 17.1065566,0.456116108 C17.2029858,0.435292545 17.3077443,0.404537745 17.4009698,0.421516958 C17.7078771,0.477260033 17.9958829,0.40389702 18.2951015,0.351998295 C18.7054859,0.28087782 19.1107444,0.208155532 19.5015867,0.0598276936 C19.5925696,0.0252285435 19.7011725,0.024267456 19.8008053,0.0284321685 C20.1746683,0.0434892061 20.5510943,0.0457317436 20.9217537,0.0934657563 C21.2683859,0.138316507 21.6102127,0.227377282 21.9513987,0.310030807 C22.3656275,0.409983908 22.7817784,0.509937008 23.187998,0.637441284 C23.425707,0.712085747 23.6483589,0.83670676 23.8738941,0.946270735 C24.1500466,1.08018226 24.4229954,1.22018067 24.6949832,1.36274199 C24.7369507,1.384847 24.7670648,1.43194029 24.8007028,1.4694227 C25.1604699,1.86731293 25.5384977,2.23508908 26.0574849,2.43275274 C26.2151033,2.49266053 26.3592664,2.61920372 26.4768394,2.74542654 C26.7677286,3.05713926 27.0445218,3.38198683 27.3165096,3.7103584 C27.4766908,3.90289626 27.6016322,4.12618893 27.7704632,4.310077 C28.1180565,4.68842512 28.3256514,5.18594808 28.7735182,5.47843904 C28.8350278,5.51784363 28.8773157,5.5873623 28.9247293,5.646309 C29.1534681,5.92950945 29.4433962,6.11692151 29.7893877,6.22904839 C29.9309879,6.27486022 30.0729085,6.33989381 30.1940056,6.42511024 C30.5114848,6.64936399 30.8110237,6.89892638 31.1304251,7.12029687 C31.3655712,7.28304102 31.6247445,7.41086565 31.8653367,7.56656183 C32.0088591,7.65946696 32.1834567,7.74884809 32.264188,7.88660397 C32.5467478,8.36810881 33.0103123,8.66604594 33.391864,9.04375332 C33.7384963,9.38686156 34.1328625,9.68159507 34.5060848,9.99715213 C34.8133125,10.2563254 35.1067645,10.5340797 35.4303306,10.7698665 C35.8660236,11.0873457 36.3315104,11.3631778 36.7720088,11.6739295 C36.9965829,11.8325089 37.1820728,12.0471518 37.4082487,12.2031683 C37.7901208,12.4658656 38.022704,12.8278752 38.1716726,13.2513944 C38.3542792,13.7691002 38.7037947,14.1871733 38.9818693,14.6478546 C39.007178,14.6898221 39.0488251,14.7228194 39.0866279,14.7567778 C39.3461215,14.9941664 39.6200314,15.2177795 39.8641477,15.4702251 C40.3011221,15.9212955 40.7493093,16.3678808 41.0273839,16.9435723 C41.1363072,17.1694278 41.2141552,17.4100201 41.3169916,17.6387589 C41.6046771,18.2794839 41.9224767,18.9080351 42.1819704,19.5596524 C42.3805951,20.0597383 42.4789464,20.5992288 42.6778915,21.0993146 C42.8611389,21.5625588 43.1145456,21.9998536 43.3471288,22.4432353 C43.3916592,22.5294128 43.4698276,22.6127071 43.554083,22.6601207 C43.9019966,22.8571437 44.1147173,23.1948057 44.4036843,23.4530179 C45.0979098,24.0745212 45.747605,24.7367105 46.3005507,25.4937271 C46.5356968,25.8150506 46.834595,26.0953678 47.1318914,26.3647927 C47.7357747,26.9132533 48.3636852,27.4348035 48.9685296,27.9816622 C49.1530584,28.1488915 49.2901735,28.3673787 49.4564417,28.5554315 C49.7143335,28.8469614 49.9952914,29.1202306 50.2368447,29.4248953 C50.5091529,29.7683239 50.7635207,30.1223245 50.9563789,30.5272627 C51.1806327,30.9975548 51.3831018,31.4736135 51.7053864,31.910588 C52.0962287,32.4398268 52.5892666,32.8300283 53.0576366,33.2609159 C53.3530108,33.5322629 53.6666457,33.7834271 53.9572145,34.0595796 C54.1712166,34.2630098 54.4073238,34.4142209 54.6815541,34.5250663 C54.9833356,34.6464837 55.2896021,34.7749491 55.5583862,34.9540317 C55.7957749,35.1116501 55.998244,35.3304577 56.1917429,35.5441395 C56.6412115,36.0400606 57.188711,36.3802856 57.8060496,36.6224796 C58.0254979,36.7086571 58.2407815,36.8047659 58.4647149,36.8992728 C58.539039,36.8089306 58.5967042,36.7445377 58.6476419,36.6750191 C59.1220987,36.0323719 59.6692779,35.473019 60.3250599,35.0030472 C60.7178243,34.7220893 61.0474773,34.3395764 61.3627141,33.9666745 C61.8243564,33.4201361 62.2292946,32.8249025 62.6918981,32.2793252 C63.4533997,31.3826306 64.3779659,30.6541262 65.2698551,29.8977504 C65.8541963,29.4021496 66.5013286,28.9815136 67.1138617,28.5192305 C67.5658932,28.1780445 67.9938975,27.8029 68.4597045,27.4822171 C68.9056491,27.1756302 69.3881151,26.935999 69.9618843,26.9561819 C70.1691589,26.9632298 70.3873257,26.9295918 70.5862708,26.8680822 C71.3109308,26.6457506 72.0403962,26.4634643 72.8067033,26.5490011 C73.1677519,26.5890464 73.5480222,26.5964148 73.8808788,26.7210358 C74.5007802,26.9532986 75.0934509,27.2595652 75.6960527,27.5376398 C75.8443806,27.6061974 75.9882233,27.6840455 76.1330272,27.759651 C76.6106877,28.0088931 77.082902,28.268707 77.566329,28.5048142 C77.9052725,28.670762 78.2692043,28.7957034 78.5264554,29.0869129 C78.7821047,29.3765206 79.0230173,29.6795835 79.2639299,29.9816853 C79.5698761,30.3645185 79.9994822,30.6105569 80.3185633,30.9895458 C80.6927467,31.4332478 81.1021699,31.8500394 81.351412,32.376395 C81.6903555,33.0917645 81.9860501,33.8279575 82.3016072,34.5545397 C82.6517634,35.3618532 82.9926291,36.173011 83.3581627,36.9729562 C83.680127,37.677113 83.895731,38.413306 84.0366905,39.1680801 C84.0908317,39.4589692 84.1699613,39.723909 84.3045135,39.9834026 C84.5659293,40.489255 84.7844165,41.0140088 84.8244619,41.5897002 C84.8683515,42.2079998 84.9807988,42.8122035 85.1861511,43.3946226 C85.3963089,43.992419 85.5343852,44.6011077 85.5888468,45.2325422 C85.6237663,45.6329954 85.69777,46.0296041 85.7483873,46.4287758 C85.8134209,46.9391133 85.9066464,47.4491304 85.9268292,47.9617104 C85.9585451,48.7520447 85.9104907,49.5446215 85.9671949,50.3349558 C86.0610611,51.6359479 86.1581309,52.93694 86.2494343,54.2382525 C86.3019737,54.9888618 86.352591,55.7401119 86.3939177,56.4916823 C86.4307594,57.1567549 86.4509423,57.8231089 86.4836192,58.4888222 Z M48.3976436,37.3532265 C48.7798361,36.8662755 48.9345712,36.3181353 48.8608878,35.7084854 C48.7878451,35.0991559 48.5072076,34.6035551 48.0205769,34.220722 C47.5336259,33.8385295 46.9854857,33.6841148 46.3758359,33.7574778 C45.766186,33.8308408 45.2705852,34.111158 44.8883928,34.598109 C44.5062003,35.0853804 44.3514652,35.6332002 44.4248282,36.2428501 C44.4981912,36.8521795 44.7781881,37.3477803 45.2657798,37.7302932 C45.7524104,38.112806 46.3005507,38.2672207 46.9102005,38.1938577 C47.51953,38.1201743 48.0157715,37.8404979 48.3976436,37.3532265 Z M47.9760466,54.4721171 L48.1862044,39.6085785 L44.6311417,40.0362624 L44.3943938,54.9033251 L47.9760466,54.4721171 Z M41.9759773,43.5467947 L42.8960584,40.1243621 C42.52636,39.995256 42.1797278,39.9497646 41.8571228,39.9888488 C40.5132021,40.1503115 39.4560058,41.0777609 38.6868155,42.7705564 L38.7028336,40.7503505 L35.504014,41.1354262 L35.2669458,56.0021684 L38.8729461,55.5680772 L38.919719,49.9844792 C38.9405426,47.481487 39.1779312,45.7915748 39.6309238,44.9141019 C40.0823145,44.0369494 40.6586467,43.5560853 41.3586387,43.4718299 C41.4858226,43.4564525 41.6918157,43.4814408 41.9759773,43.5467947 Z M33.182347,49.8979813 L21.5137836,51.3027709 C21.6720426,52.3154368 22.1038913,53.0849475 22.8077277,53.6119438 C23.5128456,54.1386198 24.4201122,54.335002 25.5314497,54.2010905 C26.8763315,54.0393074 28.013298,53.445996 28.9445918,52.420836 L32.3010297,53.6779385 C31.7048351,54.693808 30.8549134,55.5424482 29.7506238,56.2248204 C28.6466547,56.9065518 27.3815431,57.3332746 25.9565707,57.5049889 C23.7252459,57.7740934 21.8905299,57.3582629 20.4533837,56.2584584 C19.0165579,55.1589743 18.172723,53.5693356 17.9221996,51.4895422 C17.6361159,49.1150154 18.198352,47.0083116 19.6095489,45.1700715 C21.020105,43.3318315 22.8634708,42.2755963 25.1396464,42.001366 C26.5111182,41.8363793 27.7682207,41.989833 28.9119148,42.4610862 C30.0546479,42.9326598 31.0045227,43.7047335 31.7615393,44.7776275 C32.5182355,45.8502011 32.9769946,47.0586085 33.1387777,48.4028495 C33.1893949,48.8241262 33.2041316,49.3222899 33.182347,49.8979813 Z M27.7129902,45.8171718 C27.0302977,45.4311349 26.2450892,45.2917773 25.3576851,45.398458 C24.4795715,45.5041776 23.7151865,45.8370342 23.0645303,46.3973482 C22.4135537,46.9576623 21.9570371,47.694496 21.6936992,48.6078495 L29.3032697,47.6919331 C28.9258826,46.8282358 28.396003,46.2032086 27.7129902,45.8171718 Z M61.151467,42.0935984 C61.9081632,42.7179849 62.35603,43.6092334 62.4957081,44.7679846 C62.6011073,45.6448167 62.4816121,46.530619 62.1365817,47.4253915 C61.7912309,48.320164 61.3135704,49.0038176 60.7026392,49.4763522 C60.0913875,49.9495277 59.3439818,50.2391354 58.4607424,50.3454957 C57.3961778,50.4736407 56.4837854,50.2292041 55.7229244,49.6112249 C54.9630246,48.993566 54.5132356,48.1112876 54.3754797,46.9640695 C54.1960767,45.4766264 54.4962564,44.2086316 55.275378,43.1597648 C56.0551403,42.1112183 57.0851058,41.5098979 58.3662354,41.3558036 C59.4657195,41.2234938 60.3947708,41.4695322 61.151467,42.0935984 Z" id="Combined-Shape"></path>
                        </g>
                        <g id="Group-5" transform="translate(60.893229, 68.308594)">
                            <g id="Group-6">
                                <g id="Group-2">
                                    <g id="Group" transform="translate(0.142908, 0.006104)">
                                        <polygon id="Rectangle-2" fill="#2F2F2F" points="3.3995601 0 43.3443913 0 39.9448312 24.6223474 0 24.6223474"></polygon>
                                        <path d="M11.028651,7.26074405 L10.1696313,11.6755369 L11.6872328,11.6755369 C12.6989722,11.6755369 13.2716463,11.3290951 13.4052722,10.6362012 L14.063854,7.26074405 L11.028651,7.26074405 Z M8.4038686,4.27622965 L15.4860088,4.27622965 C16.128686,4.27622965 16.6409112,4.48918009 17.0226996,4.91508736 C17.4108512,5.34735146 17.5444752,5.86860329 17.4235755,6.47885849 L16.6122791,10.6362012 C16.3768429,11.8630684 15.7150862,12.8515399 14.6269891,13.6016452 C13.6025235,14.3072528 12.4285416,14.6600513 11.1050083,14.6600513 L9.58740686,14.6600513 L8.47068125,20.4097707 L5.26367436,20.4097707 L8.4038686,4.27622965 Z M22.3395751,11.6755369 C22.6450059,11.6755369 22.9313429,11.5738292 23.1985948,11.3704108 C23.4658467,11.1733493 23.6281044,10.9286152 23.6853726,10.6362012 L24.3439544,7.26074405 L21.3087515,7.26074405 L20.4497318,11.6755369 L22.3395751,11.6755369 Z M19.8675073,14.6600513 L18.7507817,20.4097707 L15.5437748,20.4097707 L18.683969,4.27622965 L25.7661093,4.27622965 C26.4087865,4.27622965 26.9210116,4.48918009 27.3028001,4.91508736 C27.6909516,5.34735146 27.8245756,5.86860329 27.7036759,6.47885849 L26.8923795,10.6362012 C26.688759,11.6914342 26.116085,12.5337008 25.1743401,13.1630265 C25.8679225,13.7923522 26.1128997,14.6409756 25.9092792,15.7089222 L24.9929915,20.4097707 L21.7859846,20.4097707 L22.7022723,15.7089222 C22.7595406,15.4165082 22.6927286,15.1654174 22.5018344,14.9556422 C22.3109402,14.7585806 22.0627814,14.6600513 21.7573506,14.6600513 L19.8675073,14.6600513 Z M31.9706384,7.26074405 L29.9948931,17.4252563 L33.0300961,17.4252563 L35.0058414,7.26074405 L31.9706384,7.26074405 Z M36.4279962,4.27622965 C37.0706734,4.27622965 37.5828986,4.48918009 37.964687,4.91508736 C38.3528386,5.34735146 38.4864626,5.86860329 38.3655629,6.47885849 L36.0843883,18.2071419 C35.9634887,18.8173971 35.6262473,19.3386489 35.072654,19.770913 C34.5254239,20.1968203 33.9304792,20.4097707 33.287802,20.4097707 L28.5727383,20.4097707 C27.9300611,20.4097707 27.4178359,20.1968203 27.0360475,19.770913 C26.6478959,19.3386489 26.5142719,18.8173971 26.6351716,18.2071419 L28.9163462,6.47885849 C29.0372458,5.86860329 29.3744872,5.34735146 29.9280805,4.91508736 C30.4753106,4.48918009 31.0702553,4.27622965 31.7129325,4.27622965 L36.4279962,4.27622965 Z" id="PRO" fill="#FFFFFF"></path>
                                    </g>
                                </g>
                            </g>
                        </g>
                    </g>
                </g>
            </g>
        </g>
    </g>
</svg>